<?xml version="1.0" encoding="UTF-8"?>
<svg version="1.1" xmlns="http://www.w3.org/2000/svg" width="122" height="35">
<path d="M0 0 C1.01610352 -0.04350586 1.01610352 -0.04350586 2.05273438 -0.08789062 C5.63703167 -0.13343888 7.34790025 0.03600697 10.16796875 2.33203125 C10.92013672 3.31236328 10.92013672 3.31236328 11.6875 4.3125 C12.14125 3.838125 12.595 3.36375 13.0625 2.875 C15.84088738 0.20347367 17.73464957 0.19230211 21.4765625 0.21484375 C22.41757812 0.21806641 23.35859375 0.22128906 24.328125 0.22460938 C25.31296875 0.23298828 26.2978125 0.24136719 27.3125 0.25 C28.30507813 0.25451172 29.29765625 0.25902344 30.3203125 0.26367188 C32.7761016 0.27547855 35.23177104 0.291946 37.6875 0.3125 C38.3475 1.9625 39.0075 3.6125 39.6875 5.3125 C39.96207031 4.49394531 40.23664062 3.67539063 40.51953125 2.83203125 C42.6875 0.3125 42.6875 0.3125 44.90380859 -0.10009766 C47.74117636 -0.18051309 50.53911986 -0.12167143 53.375 0 C54.36306641 0.02255859 55.35113281 0.04511719 56.36914062 0.06835938 C58.81011559 0.12732012 61.24804868 0.20954952 63.6875 0.3125 C64.6775 2.7875 64.6775 2.7875 65.6875 5.3125 C66.30625 4.673125 66.925 4.03375 67.5625 3.375 C70.7004032 0.32938807 72.42008985 0.17509474 76.6875 0.1875 C77.574375 0.18492187 78.46125 0.18234375 79.375 0.1796875 C81.6875 0.3125 81.6875 0.3125 83.6875 1.3125 C83.6875 0.9825 83.6875 0.6525 83.6875 0.3125 C85.9975 0.3125 88.3075 0.3125 90.6875 0.3125 C91.1825 2.7875 91.1825 2.7875 91.6875 5.3125 C92.244375 4.075 92.244375 4.075 92.8125 2.8125 C93.43125 1.9875 94.05 1.1625 94.6875 0.3125 C97.875 0 97.875 0 100.6875 0.3125 C101.1825 2.7875 101.1825 2.7875 101.6875 5.3125 C102.244375 4.075 102.244375 4.075 102.8125 2.8125 C103.43125 1.9875 104.05 1.1625 104.6875 0.3125 C107.875 0 107.875 0 110.6875 0.3125 C109.97795361 4.10903392 108.34550664 7.18925608 106.5 10.5625 C105.92894531 11.64015625 105.35789062 12.7178125 104.76953125 13.828125 C102.6875 16.3125 102.6875 16.3125 99.44921875 16.671875 C98.53785156 16.55328125 97.62648438 16.4346875 96.6875 16.3125 C96.1925 13.3425 96.1925 13.3425 95.6875 10.3125 C95.130625 11.3025 94.57375 12.2925 94 13.3125 C91.6875 16.3125 91.6875 16.3125 88.9375 16.6875 C88.195 16.56375 87.4525 16.44 86.6875 16.3125 C85.6975 13.3425 85.6975 13.3425 84.6875 10.3125 C83.90375 11.116875 83.12 11.92125 82.3125 12.75 C78.4528783 16.51772594 76.09628875 16.63844825 70.88671875 16.61328125 C68.6875 16.3125 68.6875 16.3125 66.125 14.3125 C65.650625 13.6525 65.17625 12.9925 64.6875 12.3125 C64.0275 13.6325 63.3675 14.9525 62.6875 16.3125 C60.7075 16.3125 58.7275 16.3125 56.6875 16.3125 C57.3475 12.6825 58.0075 9.0525 58.6875 5.3125 C57.3675 5.6425 56.0475 5.9725 54.6875 6.3125 C54.55472656 6.95058594 54.42195313 7.58867187 54.28515625 8.24609375 C54.10855469 9.07238281 53.93195313 9.89867187 53.75 10.75 C53.57597656 11.57371094 53.40195313 12.39742187 53.22265625 13.24609375 C52.6875 15.3125 52.6875 15.3125 51.6875 16.3125 C49.68791636 16.35330783 47.68704746 16.35504356 45.6875 16.3125 C46.0175 13.0125 46.3475 9.7125 46.6875 6.3125 C46.11902344 7.323125 45.55054688 8.33375 44.96484375 9.375 C44.18624425 10.68830036 43.40622118 12.00075747 42.625 13.3125 C42.25439453 13.98023438 41.88378906 14.64796875 41.50195312 15.3359375 C40.34466557 17.24205817 39.32770588 18.79794369 37.6875 20.3125 C33.87890625 20.75 33.87890625 20.75 30.6875 20.3125 C31.2134375 19.3225 31.2134375 19.3225 31.75 18.3125 C33.01603409 14.2611909 32.39364482 11.47875445 31.6875 7.3125 C30.6975 10.2825 29.7075 13.2525 28.6875 16.3125 C26.2696288 16.42076289 23.85662444 16.49989789 21.4375 16.5625 C20.41462891 16.61277344 20.41462891 16.61277344 19.37109375 16.6640625 C15.76568187 16.7340705 14.04681188 16.60401719 11.203125 14.296875 C10.70296875 13.64203125 10.2028125 12.9871875 9.6875 12.3125 C8.841875 12.9725 7.99625 13.6325 7.125 14.3125 C3.25313053 16.56522405 1.08471203 16.66427696 -3.3125 16.3125 C-3.9725 17.6325 -4.6325 18.9525 -5.3125 20.3125 C-7.2925 20.3125 -9.2725 20.3125 -11.3125 20.3125 C-9.71188092 0.13627522 -9.71188092 0.13627522 0 0 Z M-3.3125 7.3125 C-2.9939823 9.42070797 -2.9939823 9.42070797 -2.3125 11.3125 C-0.3325 10.9825 1.6475 10.6525 3.6875 10.3125 C4.27820014 8.36646726 4.27820014 8.36646726 4.6875 6.3125 C3.63439723 5.04246677 3.63439723 5.04246677 1.25 5.125 C-1.47984675 5.04410017 -1.47984675 5.04410017 -3.3125 7.3125 Z M16.6875 7.3125 C17.0060177 9.42070797 17.0060177 9.42070797 17.6875 11.3125 C19.3375 10.9825 20.9875 10.6525 22.6875 10.3125 C23.0175 8.6625 23.3475 7.0125 23.6875 5.3125 C19.73292152 4.96426193 19.73292152 4.96426193 16.6875 7.3125 Z M72.6875 5.3125 C72.0275 6.6325 71.3675 7.9525 70.6875 9.3125 C71.3475 9.9725 72.0075 10.6325 72.6875 11.3125 C75.29030568 10.99208603 75.29030568 10.99208603 77.6875 10.3125 C78.27820014 8.36646726 78.27820014 8.36646726 78.6875 6.3125 C77.62104885 5.01616379 77.62104885 5.01616379 75.125 5.25 C74.320625 5.270625 73.51625 5.29125 72.6875 5.3125 Z " fill="#165FF8" transform="translate(11.3125,6.6875)"/>
</svg>
